#Comment line ignore any data following # character 
#Hierarchical Translation and Rotation (.htr) file 
[Header]	
#Header keywords are followed by a single value 
FileType HTR		#Single word string
DataType HTRS		#Translation followed by rotation and scale data
FileVersion 1		#integer
NumSegments 84		#integer
NumFrames 2		#integer
DataFrameRate 30		#integer, data frame rate in this file
EulerRotationOrder ZYX
CalibrationUnits mm
RotationUnits Degrees
GlobalAxisofGravity Y
BoneLengthAxis Y
ScaleFactor 1.00
[SegmentNames&Hierarchy]
#CHILD	PARENT
MASTER GLOBAL
root MASTER
chest root
L_mid_tent01 root
R_mid_tent01 root
spine01 root
Bip01_Neck chest
L_humerus chest
R_humerus chest
weapon_bone chest
Bip01_Head Bip01_Neck
eye_left_bone Bip01_Head
eye_right_bone Bip01_Head
L_forearm L_humerus
L_front_hand L_forearm
L_weapon_bone L_forearm
L_front_hand01_01 L_front_hand
L_front_hand02_01 L_front_hand
L_front_hand03_01 L_front_hand
L_front_hand01_02 L_front_hand01_01
L_front_hand02_02 L_front_hand02_01
L_front_hand03_02 L_front_hand03_01
R_forearm R_humerus
R_front_hand R_forearm
R_weapon_bone R_forearm
R_front_hand01_01 R_front_hand
R_front_hand02_01 R_front_hand
R_front_hand03_01 R_front_hand
R_front_hand01_02 R_front_hand01_01
R_front_hand02_02 R_front_hand02_01
R_front_hand03_02 R_front_hand03_01
null_rope01_connect L_mid_tent01
Rope1_Seg01 null_rope01_connect
Rope1_Seg02 Rope1_Seg01
Rope1_Seg03 Rope1_Seg02
Rope1_Seg04 Rope1_Seg03
Rope1_Seg05 Rope1_Seg04
Rope1_Seg06 Rope1_Seg05
Rope1_Seg07 Rope1_Seg06
Rope1_Seg09 Rope1_Seg07
L_mid_hand01 Rope1_Seg09
L_mid_hand02 Rope1_Seg09
L_mid_hand03 Rope1_Seg09
null_rope02_connect R_mid_tent01
Rope2_Seg01 null_rope02_connect
Rope2_Seg02 Rope2_Seg01
Rope2_Seg03 Rope2_Seg02
Rope2_Seg04 Rope2_Seg03
Rope2_Seg05 Rope2_Seg04
Rope2_Seg06 Rope2_Seg05
Rope2_Seg07 Rope2_Seg06
Rope2_Seg09 Rope2_Seg07
R_mid_hand01 Rope2_Seg09
R_mid_hand02 Rope2_Seg09
R_mid_hand03 Rope2_Seg09
spine02 spine01
spine03 spine02
pelvis spine03
null_rope03_connect pelvis
null_rope04_connect pelvis
Rope3_Seg01 null_rope03_connect
Rope3_Seg02 Rope3_Seg01
Rope3_Seg03 Rope3_Seg02
Rope3_Seg04 Rope3_Seg03
Rope3_Seg05 Rope3_Seg04
Rope3_Seg06 Rope3_Seg05
Rope3_Seg07 Rope3_Seg06
Rope3_Seg08 Rope3_Seg07
Rope3_Seg09 Rope3_Seg08
R_rear_hand01 Rope3_Seg09
R_rear_hand02 Rope3_Seg09
R_rear_hand03 Rope3_Seg09
Rope4_Seg01 null_rope04_connect
Rope4_Seg02 Rope4_Seg01
Rope4_Seg03 Rope4_Seg02
Rope4_Seg04 Rope4_Seg03
Rope4_Seg05 Rope4_Seg04
Rope4_Seg06 Rope4_Seg05
Rope4_Seg07 Rope4_Seg06
Rope4_Seg08 Rope4_Seg07
Rope4_Seg09 Rope4_Seg08
L_rear_hand01 Rope4_Seg09
L_rear_hand02 Rope4_Seg09
L_rear_hand03 Rope4_Seg09
[BasePosition]
#SegmentName Tx, Ty, Tz, Rx, Ry, Rz, BoneLength
MASTER 0.000000 0.000000 0.000000 -90.000000 0.000000 0.000000 10.000000 
root 0.000000 0.000000 0.000000 0.000000 0.000000 0.000000 10.000000 
chest 0.000000 0.000000 0.000000 0.000000 0.000000 0.000000 10.000000 
L_mid_tent01 0.000000 0.000000 0.000000 0.000000 0.000000 0.000000 10.000000 
R_mid_tent01 0.000000 0.000000 0.000000 0.000000 0.000000 0.000000 10.000000 
spine01 0.000000 0.000000 0.000000 0.000000 0.000000 0.000000 10.000000 
Bip01_Neck 0.000000 0.000000 0.000000 0.000000 0.000000 0.000000 10.000000 
L_humerus 0.000000 0.000000 0.000000 0.000000 0.000000 0.000000 10.000000 
R_humerus 0.000000 0.000000 0.000000 0.000000 0.000000 0.000000 10.000000 
weapon_bone 0.000000 0.000000 0.000000 0.000000 0.000000 0.000000 10.000000 
Bip01_Head 0.000000 0.000000 0.000000 0.000000 0.000000 0.000000 10.000000 
eye_left_bone 0.000000 0.000000 0.000000 0.000000 0.000000 0.000000 10.000000 
eye_right_bone 0.000000 0.000000 0.000000 0.000000 0.000000 0.000000 10.000000 
L_forearm 0.000000 0.000000 0.000000 0.000000 0.000000 0.000000 10.000000 
L_front_hand 0.000000 0.000000 0.000000 0.000000 0.000000 0.000000 10.000000 
L_weapon_bone 0.000000 0.000000 0.000000 0.000000 0.000000 0.000000 10.000000 
L_front_hand01_01 0.000000 0.000000 0.000000 0.000000 0.000000 0.000000 10.000000 
L_front_hand02_01 0.000000 0.000000 0.000000 0.000000 0.000000 0.000000 10.000000 
L_front_hand03_01 0.000000 0.000000 0.000000 0.000000 0.000000 0.000000 10.000000 
L_front_hand01_02 0.000000 0.000000 0.000000 0.000000 0.000000 0.000000 10.000000 
L_front_hand02_02 0.000000 0.000000 0.000000 0.000000 0.000000 0.000000 10.000000 
L_front_hand03_02 0.000000 0.000000 0.000000 0.000000 0.000000 0.000000 10.000000 
R_forearm 0.000000 0.000000 0.000000 0.000000 0.000000 0.000000 10.000000 
R_front_hand 0.000000 0.000000 0.000000 0.000000 0.000000 0.000000 10.000000 
R_weapon_bone 0.000000 0.000000 0.000000 0.000000 0.000000 0.000000 10.000000 
R_front_hand01_01 0.000000 0.000000 0.000000 0.000000 0.000000 0.000000 10.000000 
R_front_hand02_01 0.000000 0.000000 0.000000 0.000000 0.000000 0.000000 10.000000 
R_front_hand03_01 0.000000 0.000000 0.000000 0.000000 0.000000 0.000000 10.000000 
R_front_hand01_02 0.000000 0.000000 0.000000 0.000000 0.000000 0.000000 10.000000 
R_front_hand02_02 0.000000 0.000000 0.000000 0.000000 0.000000 0.000000 10.000000 
R_front_hand03_02 0.000000 0.000000 0.000000 0.000000 0.000000 0.000000 10.000000 
null_rope01_connect 0.000000 0.000000 0.000000 0.000000 0.000000 0.000000 10.000000 
Rope1_Seg01 0.000000 0.000000 0.000000 0.000000 0.000000 0.000000 10.000000 
Rope1_Seg02 0.000000 0.000000 0.000000 0.000000 0.000000 0.000000 10.000000 
Rope1_Seg03 0.000000 0.000000 0.000000 0.000000 0.000000 0.000000 10.000000 
Rope1_Seg04 0.000000 0.000000 0.000000 0.000000 0.000000 0.000000 10.000000 
Rope1_Seg05 0.000000 0.000000 0.000000 0.000000 0.000000 0.000000 10.000000 
Rope1_Seg06 0.000000 0.000000 0.000000 0.000000 0.000000 0.000000 10.000000 
Rope1_Seg07 0.000000 0.000000 0.000000 0.000000 0.000000 0.000000 10.000000 
Rope1_Seg09 0.000000 0.000000 0.000000 0.000000 0.000000 0.000000 10.000000 
L_mid_hand01 0.000000 0.000000 0.000000 0.000000 0.000000 0.000000 10.000000 
L_mid_hand02 0.000000 0.000000 0.000000 0.000000 0.000000 0.000000 10.000000 
L_mid_hand03 0.000000 0.000000 0.000000 0.000000 0.000000 0.000000 10.000000 
null_rope02_connect 0.000000 0.000000 0.000000 0.000000 0.000000 0.000000 10.000000 
Rope2_Seg01 0.000000 0.000000 0.000000 0.000000 0.000000 0.000000 10.000000 
Rope2_Seg02 0.000000 0.000000 0.000000 0.000000 0.000000 0.000000 10.000000 
Rope2_Seg03 0.000000 0.000000 0.000000 0.000000 0.000000 0.000000 10.000000 
Rope2_Seg04 0.000000 0.000000 0.000000 0.000000 0.000000 0.000000 10.000000 
Rope2_Seg05 0.000000 0.000000 0.000000 0.000000 0.000000 0.000000 10.000000 
Rope2_Seg06 0.000000 0.000000 0.000000 0.000000 0.000000 0.000000 10.000000 
Rope2_Seg07 0.000000 0.000000 0.000000 0.000000 0.000000 0.000000 10.000000 
Rope2_Seg09 0.000000 0.000000 0.000000 0.000000 0.000000 0.000000 10.000000 
R_mid_hand01 0.000000 0.000000 0.000000 0.000000 0.000000 0.000000 10.000000 
R_mid_hand02 0.000000 0.000000 0.000000 0.000000 0.000000 0.000000 10.000000 
R_mid_hand03 0.000000 0.000000 0.000000 0.000000 0.000000 0.000000 10.000000 
spine02 0.000000 0.000000 0.000000 0.000000 0.000000 0.000000 10.000000 
spine03 0.000000 0.000000 0.000000 0.000000 0.000000 0.000000 10.000000 
pelvis 0.000000 0.000000 0.000000 0.000000 0.000000 0.000000 10.000000 
null_rope03_connect 0.000000 0.000000 0.000000 0.000000 0.000000 0.000000 10.000000 
null_rope04_connect 0.000000 0.000000 0.000000 0.000000 0.000000 0.000000 10.000000 
Rope3_Seg01 0.000000 0.000000 0.000000 0.000000 0.000000 0.000000 10.000000 
Rope3_Seg02 0.000000 0.000000 0.000000 0.000000 0.000000 0.000000 10.000000 
Rope3_Seg03 0.000000 0.000000 0.000000 0.000000 0.000000 0.000000 10.000000 
Rope3_Seg04 0.000000 0.000000 0.000000 0.000000 0.000000 0.000000 10.000000 
Rope3_Seg05 0.000000 0.000000 0.000000 0.000000 0.000000 0.000000 10.000000 
Rope3_Seg06 0.000000 0.000000 0.000000 0.000000 0.000000 0.000000 10.000000 
Rope3_Seg07 0.000000 0.000000 0.000000 0.000000 0.000000 0.000000 10.000000 
Rope3_Seg08 0.000000 0.000000 0.000000 0.000000 0.000000 0.000000 10.000000 
Rope3_Seg09 0.000000 0.000000 0.000000 0.000000 0.000000 0.000000 10.000000 
R_rear_hand01 0.000000 0.000000 0.000000 0.000000 0.000000 0.000000 10.000000 
R_rear_hand02 0.000000 0.000000 0.000000 0.000000 0.000000 0.000000 10.000000 
R_rear_hand03 0.000000 0.000000 0.000000 0.000000 0.000000 0.000000 10.000000 
Rope4_Seg01 0.000000 0.000000 0.000000 0.000000 0.000000 0.000000 10.000000 
Rope4_Seg02 0.000000 0.000000 0.000000 0.000000 0.000000 0.000000 10.000000 
Rope4_Seg03 0.000000 0.000000 0.000000 0.000000 0.000000 0.000000 10.000000 
Rope4_Seg04 0.000000 0.000000 0.000000 0.000000 0.000000 0.000000 10.000000 
Rope4_Seg05 0.000000 0.000000 0.000000 0.000000 0.000000 0.000000 10.000000 
Rope4_Seg06 0.000000 0.000000 0.000000 0.000000 0.000000 0.000000 10.000000 
Rope4_Seg07 0.000000 0.000000 0.000000 0.000000 0.000000 0.000000 10.000000 
Rope4_Seg08 0.000000 0.000000 0.000000 0.000000 0.000000 0.000000 10.000000 
Rope4_Seg09 0.000000 0.000000 0.000000 0.000000 0.000000 0.000000 10.000000 
L_rear_hand01 0.000000 0.000000 0.000000 0.000000 0.000000 0.000000 10.000000 
L_rear_hand02 0.000000 0.000000 0.000000 0.000000 0.000000 0.000000 10.000000 
L_rear_hand03 0.000000 0.000000 0.000000 0.000000 0.000000 0.000000 10.000000 
#Beginning of Data. Separated by tabs
#Fr	Tx	Ty	Tz	Rx	Ry	Rz	SF
[MASTER]
26 0.000884 -8240.416992 -102.992241 0.001660 0.001660 0.001660 8241.060547
27 0.000910 -8482.911133 -68.599228 0.001660 0.001660 0.001660 8483.188477
[root]
26 -25.473179 -49.057007 1493.022949 -99.871613 -33.071327 -88.198463 1494.045898
27 -21.630833 -30.742798 1474.786987 -96.552132 -23.821835 -88.445801 1475.265991
[chest]
26 -84.512650 -34.090519 0.000000 -2.467799 -0.150657 176.300705 91.129311
27 -84.512650 -34.090519 0.000000 -2.327060 -0.088946 172.540176 91.129311
[L_mid_tent01]
26 27.299187 22.179106 -249.918701 -3.726115 33.958115 66.049683 252.381699
27 27.299189 22.179106 -249.918701 -13.979382 26.527658 41.670673 252.381699
[R_mid_tent01]
26 23.228794 24.509907 226.238495 169.303757 -41.663330 73.107437 228.744751
27 23.228794 24.509907 226.238495 -177.059814 -33.252785 49.912014 228.744751
[spine01]
26 -0.361383 -0.195265 0.000000 0.001964 0.001286 23.555349 0.410763
27 -0.361383 -0.195265 0.000000 0.001958 0.001295 23.025135 0.410763
[Bip01_Neck]
26 165.484543 71.581718 0.000119 176.643677 -1.657967 43.431911 180.302734
27 165.484543 71.581718 0.000119 176.643677 -1.657967 43.431911 180.302734
[L_humerus]
26 -13.983130 -135.272980 -120.471481 152.207352 76.415031 -116.371101 181.680161
27 -13.983130 -135.272980 -120.471481 116.430344 85.876877 -152.575531 181.680161
[R_humerus]
26 -13.983309 -135.273102 125.287651 -176.134872 -73.428062 -88.710876 184.909012
27 -13.983309 -135.273102 125.287651 160.356049 -83.687210 -65.048996 184.909012
[weapon_bone]
26 235.964890 -300.705902 0.000000 0.000000 -89.951546 -128.212341 382.234833
27 235.964890 -300.705902 0.000000 0.000000 -89.951546 -128.212341 382.234833
[Bip01_Head]
26 213.340912 186.003876 8.053361 9.067745 3.281933 -43.888077 283.154785
27 213.343201 185.997314 8.139496 9.067745 3.281933 -43.888077 283.154663
[eye_left_bone]
26 -24.626970 125.451866 -64.772606 0.000000 -90.000000 -99.840431 143.318359
27 -24.626970 125.451866 -64.772606 0.000000 -90.000000 -99.840431 143.318359
[eye_right_bone]
26 -24.626970 125.451866 64.327362 0.000000 -89.965736 80.156380 143.117676
27 -24.626970 125.451866 64.327362 0.000000 -89.965736 80.156380 143.117676
[L_forearm]
26 322.776093 0.000000 -0.000119 0.000225 -0.002336 -100.988884 322.776093
27 322.776093 0.000000 -0.000119 0.000313 -0.002326 -105.332130 322.776093
[L_front_hand]
26 241.149185 -0.042021 -3.300071 -30.076220 -1.836578 -27.421785 241.171753
27 241.149185 -0.042021 -3.300071 -30.076220 -1.836578 -27.421785 241.171753
[L_weapon_bone]
26 156.183838 0.000000 0.000000 0.000014 0.000007 0.000001 156.183838
27 156.183838 0.000000 0.000000 0.000014 0.000007 0.000001 156.183838
[L_front_hand01_01]
26 86.095154 20.947098 -0.655860 -0.366594 -0.477154 75.385574 88.609184
27 86.095154 20.947098 -0.655860 -0.366594 -0.477154 75.385574 88.609184
[L_front_hand02_01]
26 86.935165 -11.437475 24.513514 154.399796 -59.883835 -61.369587 91.046425
27 86.935165 -11.437475 24.513514 154.399796 -59.883835 -61.369587 91.046425
[L_front_hand03_01]
26 86.637497 -14.123976 -20.424902 -153.913849 58.118122 -62.702866 90.126129
27 86.637497 -14.123976 -20.424902 -153.913849 58.118122 -62.702866 90.126129
[L_front_hand01_02]
26 71.020905 -0.000179 0.000030 0.000334 -0.002323 -106.379684 71.020905
27 71.020905 -0.000179 0.000030 0.000334 -0.002323 -106.379684 71.020905
[L_front_hand02_02]
26 71.020927 -0.000119 0.000060 0.000334 -0.002323 -106.379684 71.020927
27 71.020927 -0.000119 0.000060 0.000334 -0.002323 -106.379684 71.020927
[L_front_hand03_02]
26 71.020905 -0.000060 0.000060 0.000334 -0.002323 -106.379684 71.020905
27 71.020905 -0.000060 0.000060 0.000334 -0.002323 -106.379684 71.020905
[R_forearm]
26 322.776428 -0.000060 0.000030 0.211516 0.031599 -98.876434 322.776428
27 322.776428 -0.000060 0.000030 0.209312 0.046740 -103.327988 322.776428
[R_front_hand]
26 238.847015 -0.006795 2.210259 158.362015 -10.646729 -26.313385 238.857239
27 238.847015 -0.006795 2.210259 158.362015 -10.646729 -26.313385 238.857239
[R_weapon_bone]
26 155.664093 0.002503 -0.000030 0.003487 0.001180 -90.988930 155.664078
27 155.664093 0.002503 -0.000030 0.003487 0.001180 -90.988930 155.664078
[R_front_hand01_01]
26 87.624611 14.231146 22.918642 -154.633499 -59.950619 61.746044 91.683487
27 87.624611 14.231146 22.918642 -154.633499 -59.950619 61.746044 91.683487
[R_front_hand02_01]
26 89.356956 14.367283 -19.491137 154.602661 58.302849 63.744389 92.579636
27 89.356956 14.367283 -19.491137 154.602661 58.302849 63.744389 92.579636
[R_front_hand03_01]
26 87.286232 -22.307278 -0.143439 0.162155 -0.423168 -75.767921 90.091743
27 87.286232 -22.307278 -0.143439 0.162155 -0.423168 -75.767921 90.091743
[R_front_hand01_02]
26 71.020905 0.000060 0.000119 0.002323 -0.000334 106.381714 71.020905
27 71.020905 0.000060 0.000119 0.002323 -0.000334 106.381714 71.020905
[R_front_hand02_02]
26 71.020844 -0.000030 -0.000119 0.002323 -0.000334 106.381714 71.020836
27 71.020844 -0.000030 -0.000119 0.002323 -0.000334 106.381714 71.020836
[R_front_hand03_02]
26 71.020905 0.000000 0.000030 0.002323 -0.000334 106.381714 71.020905
27 71.020905 0.000000 0.000030 0.002323 -0.000334 106.381714 71.020905
[null_rope01_connect]
26 328.732483 0.000000 -0.000238 -134.270340 -47.658466 -168.433472 328.732483
27 328.732483 0.000000 -0.000238 -141.753494 -54.983418 -148.441330 328.732483
[Rope1_Seg01]
26 -0.000034 -0.000004 0.000153 69.457565 -48.213657 -142.691956 0.000156
27 -0.000035 -0.000003 0.000153 57.398643 -32.387482 -128.531143 0.000157
[Rope1_Seg02]
26 139.999863 -0.000179 0.000000 2.759375 5.522900 -18.269829 139.999863
27 139.999863 -0.000179 0.000000 -1.330553 9.355342 -9.745907 139.999863
[Rope1_Seg03]
26 139.999924 0.000060 -0.000060 27.496014 8.412441 -38.692028 139.999924
27 139.999924 0.000060 -0.000060 2.242512 13.613706 -18.788776 139.999924
[Rope1_Seg04]
26 139.999924 -0.000060 -0.000119 3.110319 -0.090459 -2.257005 139.999924
27 139.999924 -0.000060 -0.000119 -21.802692 7.020106 5.039192 139.999924
[Rope1_Seg05]
26 139.999832 0.000119 -0.000060 -18.581585 5.625149 11.790547 139.999832
27 139.999832 0.000119 -0.000060 -10.969204 -2.565655 12.946691 139.999832
[Rope1_Seg06]
26 139.999954 0.000119 -0.000060 -6.138984 0.922342 5.972808 139.999954
27 139.999954 0.000119 -0.000060 -4.051853 -1.158316 6.008917 139.999954
[Rope1_Seg07]
26 139.999985 0.000060 0.000000 0.006605 0.001660 0.001660 139.999985
27 139.999985 0.000060 0.000000 -1.470112 -0.725268 2.726682 139.999985
[Rope1_Seg09]
26 121.602913 0.000119 -0.000089 -89.793175 -1.359789 0.847147 121.602913
27 121.602913 0.000119 -0.000089 -89.793175 -1.359789 0.847147 121.602913
[L_mid_hand01]
26 103.859421 1.038730 8.195221 130.544373 -67.584534 -38.866943 104.187431
27 103.859421 1.038730 8.195221 130.544373 -67.584534 -38.866943 104.187431
[L_mid_hand02]
26 105.572853 -4.139662 -10.864139 -168.923172 43.409309 -73.498886 106.211075
27 105.572853 -4.139662 -10.864139 -168.923172 43.409309 -73.498894 106.211075
[L_mid_hand03]
26 104.641464 17.579376 -3.913581 -6.012627 17.808174 74.893669 106.179977
27 104.641464 17.579376 -3.913581 -6.012627 17.808174 74.893669 106.179977
[null_rope02_connect]
26 328.732849 0.000179 -0.000119 -106.148735 53.472126 22.008112 328.732849
27 328.732849 0.000179 -0.000119 -113.495102 60.375614 4.738001 328.732849
[Rope2_Seg01]
26 0.000095 0.000557 0.000000 25.489700 -24.764370 -43.484764 0.000565
27 0.000095 0.000575 0.000000 29.736940 -15.881643 -45.892384 0.000583
[Rope2_Seg02]
26 139.999741 -0.000060 -0.000119 -6.019154 6.160699 2.981043 139.999756
27 139.999741 -0.000060 -0.000119 1.336508 1.445296 -1.628697 139.999756
[Rope2_Seg03]
26 140.000107 0.000030 0.000000 -15.778317 10.984455 7.622998 140.000107
27 140.000107 0.000030 0.000000 -5.701390 4.727333 1.490892 140.000107
[Rope2_Seg04]
26 139.999802 0.000000 -0.000060 -22.197386 10.292953 11.100119 139.999802
27 139.999802 0.000000 -0.000060 18.156239 -3.777524 -9.550954 139.999802
[Rope2_Seg05]
26 139.999985 -0.000060 0.000119 46.899380 12.996335 -22.097689 139.999985
27 139.999985 -0.000060 0.000119 26.062920 -16.748711 -15.062156 139.999985
[Rope2_Seg06]
26 139.999893 -0.000030 -0.000119 79.187592 -6.861212 -40.621651 139.999893
27 139.999893 -0.000030 -0.000119 6.907431 -11.173657 -3.821463 139.999893
[Rope2_Seg07]
26 139.999893 0.000060 -0.000060 -0.052743 0.001660 0.001659 139.999893
27 139.999893 0.000060 -0.000060 2.244166 -5.581869 -1.202272 139.999893
[Rope2_Seg09]
26 121.338966 0.000089 -0.000060 33.793236 -1.359788 -0.847141 121.338966
27 121.338966 0.000089 -0.000060 33.793236 -1.359788 -0.847141 121.338966
[R_mid_hand01]
26 104.680779 11.144459 -10.335981 -16.212063 45.237247 70.462852 105.778534
27 104.680779 11.144459 -10.335981 -16.212063 45.237247 70.462852 105.778534
[R_mid_hand02]
26 104.070427 2.443552 8.231699 49.067368 -67.749771 39.286453 104.424065
27 104.070427 2.443552 8.231699 49.067368 -67.749771 39.286453 104.424065
[R_mid_hand03]
26 106.028137 -11.221827 -5.996406 -177.101105 15.551026 -76.585571 106.788818
27 106.028137 -11.221827 -5.996406 -177.101105 15.551026 -76.585571 106.788818
[spine02]
26 129.756927 0.001550 0.000119 0.370970 -4.043698 -13.084785 129.756927
27 129.756927 0.001550 0.000119 0.362878 -4.044547 -12.994843 129.756927
[spine03]
26 78.613365 0.081754 -4.899057 1.902794 3.829027 16.588243 78.765907
27 78.613342 0.081765 -4.899059 1.898168 3.830461 16.523090 78.765884
[pelvis]
26 169.435242 0.051022 0.000000 -0.060810 -0.180109 14.307218 169.435257
27 169.435242 0.051022 0.000000 -0.060622 -0.180173 14.187603 169.435257
[null_rope03_connect]
26 -1.257226 -2.466202 137.391083 -156.478821 -82.127151 -121.661583 137.418976
27 -1.257226 -2.466202 137.391083 -170.604645 -85.038872 -116.226036 137.418976
[null_rope04_connect]
26 -1.259640 -2.480268 -137.844437 -156.478821 -82.127151 -121.661583 137.872513
27 -1.259640 -2.480268 -137.844437 -170.604645 -85.038872 -116.226036 137.872513
[Rope3_Seg01]
26 -0.000019 0.000541 -0.000016 -136.554962 -24.642748 -65.700569 0.000541
27 -0.000019 0.000564 -0.000011 -130.729935 -3.513849 -76.352913 0.000564
[Rope3_Seg02]
26 139.999924 -0.000119 0.000060 -1.255802 0.718931 -5.483613 139.999924
27 139.999924 -0.000119 0.000060 0.049026 -0.709756 -2.056196 139.999924
[Rope3_Seg03]
26 139.999924 -0.000119 0.000119 -6.395567 4.578963 -14.164024 139.999924
27 139.999924 -0.000119 0.000119 -0.333532 -0.209831 -6.286887 139.999924
[Rope3_Seg04]
26 139.999924 0.000119 0.000000 13.491034 -25.136965 13.940976 139.999924
27 139.999924 0.000119 0.000000 0.587905 -2.736327 4.055042 139.999924
[Rope3_Seg05]
26 139.999924 -0.000238 0.000060 3.780132 -30.295843 43.754200 139.999924
27 139.999924 -0.000238 0.000060 -0.191267 -4.835224 17.717346 139.999924
[Rope3_Seg06]
26 139.999893 -0.000119 -0.000060 0.658270 -3.934641 8.315039 139.999893
27 139.999893 -0.000119 -0.000060 -0.814571 -2.794883 9.426984 139.999893
[Rope3_Seg07]
26 139.999771 0.000060 -0.000119 0.506119 0.001652 0.001667 139.999771
27 139.999771 0.000060 -0.000119 -0.279485 -1.309422 4.244564 139.999771
[Rope3_Seg08]
26 139.999985 -0.000060 0.000000 0.535796 0.001652 0.001667 139.999985
27 139.999985 -0.000060 0.000000 0.471218 -0.103508 0.317762 139.999985
[Rope3_Seg09]
26 90.185997 -0.000179 -0.000060 89.793228 -1.359877 -0.847183 90.185997
27 90.185997 -0.000179 -0.000060 89.793228 -1.359877 -0.847183 90.185997
[R_rear_hand01]
26 103.366196 -6.073594 -10.757982 -177.714203 24.565960 -73.910950 104.101845
27 103.366196 -6.073594 -10.757982 -177.714203 24.565960 -73.910950 104.101845
[R_rear_hand02]
26 100.509819 12.039542 -7.992327 -12.874829 36.868488 72.167213 101.543350
27 100.509819 12.039542 -7.992327 -12.874829 36.868488 72.167213 101.543350
[R_rear_hand03]
26 101.539970 5.215704 5.435467 71.484581 -71.816628 21.513813 101.819031
27 101.539970 5.215704 5.435467 71.484581 -71.816628 21.513813 101.819031
[Rope4_Seg01]
26 0.000010 0.000038 -0.000114 49.770119 -5.043617 -119.118309 0.000121
27 0.000010 0.000038 -0.000114 46.423321 10.017094 -116.605904 0.000121
[Rope4_Seg02]
26 139.999985 0.000060 0.000119 2.544546 -7.075983 5.407518 139.999985
27 139.999985 0.000060 0.000119 0.842988 -0.968522 4.704452 139.999985
[Rope4_Seg03]
26 139.999924 0.000000 -0.000238 13.246719 -30.509171 31.323658 139.999924
27 139.999924 0.000000 -0.000238 1.644963 -3.232913 14.133246 139.999924
[Rope4_Seg04]
26 139.999985 0.000000 0.000119 -52.033638 -10.250160 -67.198486 139.999985
27 139.999985 0.000000 0.000119 0.599414 -1.075808 22.521370 139.999985
[Rope4_Seg05]
26 139.999802 -0.000060 -0.000119 -32.925014 55.048107 -36.694702 139.999802
27 139.999802 -0.000060 -0.000119 -6.712096 15.441646 -48.450260 139.999802
[Rope4_Seg06]
26 139.999924 0.000000 0.000060 0.110465 0.001658 0.001661 139.999924
27 139.999924 0.000000 0.000060 -0.729540 4.320409 -10.786596 139.999924
[Rope4_Seg07]
26 139.999802 0.000000 0.000000 0.140142 0.001658 0.001662 139.999802
27 139.999802 0.000000 0.000000 -0.037151 1.257342 -3.085418 139.999802
[Rope4_Seg08]
26 139.999924 0.000000 0.000119 -1.447465 0.001681 0.001639 139.999924
27 139.999924 0.000000 0.000119 -1.442650 -0.075013 0.195504 139.999924
[Rope4_Seg09]
26 90.185791 0.000060 0.000060 -135.617828 2.228885 0.850567 90.185791
27 90.185791 0.000060 0.000060 -135.617828 2.228885 0.850567 90.185791
[L_rear_hand01]
26 101.696655 -8.392275 -7.654577 -12.874829 -36.868488 107.832764 102.329041
27 101.696655 -8.392275 -7.654577 -12.874829 -36.868488 107.832764 102.329041
[L_rear_hand02]
26 102.726799 -1.568258 5.773216 71.484581 71.816628 158.486160 102.900848
27 102.726799 -1.568258 5.773216 71.484581 71.816628 158.486160 102.900848
[L_rear_hand03]
26 104.552910 9.721220 -10.420293 -177.714203 -24.565960 -106.089035 105.519653
27 104.552910 9.721220 -10.420293 -177.714203 -24.565960 -106.089035 105.519653
